<mxfile host="Electron" agent="Mozilla/5.0 (Windows NT 10.0; Win64; x64) AppleWebKit/537.36 (KHTML, like Gecko) draw.io/24.7.17 Chrome/128.0.6613.36 Electron/32.0.1 Safari/537.36" version="24.7.17">
  <diagram id="C5RBs43oDa-KdzZeNtuy" name="Page-1">
    <mxGraphModel dx="1091" dy="638" grid="1" gridSize="10" guides="1" tooltips="1" connect="1" arrows="1" fold="1" page="1" pageScale="1" pageWidth="827" pageHeight="1169" math="0" shadow="0">
      <root>
        <mxCell id="WIyWlLk6GJQsqaUBKTNV-0" />
        <mxCell id="WIyWlLk6GJQsqaUBKTNV-1" parent="WIyWlLk6GJQsqaUBKTNV-0" />
        <mxCell id="5T_4vJ3e5URUgC4gEQ-A-2" style="edgeStyle=orthogonalEdgeStyle;rounded=0;orthogonalLoop=1;jettySize=auto;html=1;entryX=0.5;entryY=0;entryDx=0;entryDy=0;" parent="WIyWlLk6GJQsqaUBKTNV-1" source="5T_4vJ3e5URUgC4gEQ-A-0" target="5T_4vJ3e5URUgC4gEQ-A-1" edge="1">
          <mxGeometry relative="1" as="geometry" />
        </mxCell>
        <mxCell id="5T_4vJ3e5URUgC4gEQ-A-0" value="&lt;font face=&quot;Times New Roman&quot;&gt;&lt;span style=&quot;font-size: 14px;&quot;&gt;&lt;b&gt;用戶&lt;/b&gt;&lt;/span&gt;&lt;/font&gt;&lt;div&gt;&lt;font face=&quot;Times New Roman&quot;&gt;&lt;span style=&quot;font-size: 14px;&quot;&gt;&lt;b&gt;(中學生)&lt;/b&gt;&lt;/span&gt;&lt;/font&gt;&lt;/div&gt;" style="ellipse;whiteSpace=wrap;html=1;" parent="WIyWlLk6GJQsqaUBKTNV-1" vertex="1">
          <mxGeometry x="402" y="80" width="84" height="80" as="geometry" />
        </mxCell>
        <mxCell id="5T_4vJ3e5URUgC4gEQ-A-5" value="" style="edgeStyle=orthogonalEdgeStyle;rounded=0;orthogonalLoop=1;jettySize=auto;html=1;" parent="WIyWlLk6GJQsqaUBKTNV-1" source="5T_4vJ3e5URUgC4gEQ-A-1" target="5T_4vJ3e5URUgC4gEQ-A-4" edge="1">
          <mxGeometry relative="1" as="geometry" />
        </mxCell>
        <mxCell id="5T_4vJ3e5URUgC4gEQ-A-1" value="&lt;font face=&quot;Times New Roman&quot; style=&quot;font-size: 13px;&quot;&gt;&lt;b&gt;網頁形式&lt;/b&gt;&lt;/font&gt;" style="rounded=1;whiteSpace=wrap;html=1;" parent="WIyWlLk6GJQsqaUBKTNV-1" vertex="1">
          <mxGeometry x="389" y="200" width="110" height="40" as="geometry" />
        </mxCell>
        <mxCell id="5T_4vJ3e5URUgC4gEQ-A-7" style="edgeStyle=orthogonalEdgeStyle;rounded=0;orthogonalLoop=1;jettySize=auto;html=1;exitX=0.5;exitY=1;exitDx=0;exitDy=0;entryX=0.5;entryY=0;entryDx=0;entryDy=0;" parent="WIyWlLk6GJQsqaUBKTNV-1" source="5T_4vJ3e5URUgC4gEQ-A-4" target="5T_4vJ3e5URUgC4gEQ-A-6" edge="1">
          <mxGeometry relative="1" as="geometry" />
        </mxCell>
        <mxCell id="5T_4vJ3e5URUgC4gEQ-A-8" value="輸入圖片" style="edgeLabel;html=1;align=center;verticalAlign=middle;resizable=0;points=[];rounded=1;strokeColor=default;fontFamily=Times New Roman;fontSize=12;fontColor=default;fillColor=default;fontStyle=1;" parent="5T_4vJ3e5URUgC4gEQ-A-7" vertex="1" connectable="0">
          <mxGeometry x="-0.12" relative="1" as="geometry">
            <mxPoint as="offset" />
          </mxGeometry>
        </mxCell>
        <mxCell id="CbZdCUF0qnuNfcNd1vrO-1" style="edgeStyle=orthogonalEdgeStyle;rounded=0;orthogonalLoop=1;jettySize=auto;html=1;entryX=0.5;entryY=0;entryDx=0;entryDy=0;" edge="1" parent="WIyWlLk6GJQsqaUBKTNV-1" source="5T_4vJ3e5URUgC4gEQ-A-4" target="CbZdCUF0qnuNfcNd1vrO-0">
          <mxGeometry relative="1" as="geometry" />
        </mxCell>
        <mxCell id="CbZdCUF0qnuNfcNd1vrO-20" style="edgeStyle=orthogonalEdgeStyle;rounded=0;orthogonalLoop=1;jettySize=auto;html=1;exitX=0.75;exitY=1;exitDx=0;exitDy=0;" edge="1" parent="WIyWlLk6GJQsqaUBKTNV-1" source="5T_4vJ3e5URUgC4gEQ-A-4" target="CbZdCUF0qnuNfcNd1vrO-19">
          <mxGeometry relative="1" as="geometry">
            <Array as="points">
              <mxPoint x="474" y="370" />
              <mxPoint x="776" y="370" />
            </Array>
          </mxGeometry>
        </mxCell>
        <mxCell id="5T_4vJ3e5URUgC4gEQ-A-4" value="&lt;font style=&quot;font-size: 13px;&quot;&gt;前端介面 -&amp;nbsp;&lt;br&gt;主要知識問答&lt;/font&gt;" style="whiteSpace=wrap;html=1;rounded=1;strokeColor=default;align=center;verticalAlign=middle;fontFamily=Times New Roman;fontSize=12;fontColor=default;fillColor=default;fontStyle=1" parent="WIyWlLk6GJQsqaUBKTNV-1" vertex="1">
          <mxGeometry x="383.5" y="270" width="121" height="60" as="geometry" />
        </mxCell>
        <mxCell id="CbZdCUF0qnuNfcNd1vrO-3" style="edgeStyle=orthogonalEdgeStyle;rounded=0;orthogonalLoop=1;jettySize=auto;html=1;exitX=0.5;exitY=1;exitDx=0;exitDy=0;entryX=0;entryY=0.5;entryDx=0;entryDy=0;" edge="1" parent="WIyWlLk6GJQsqaUBKTNV-1" source="5T_4vJ3e5URUgC4gEQ-A-6" target="CbZdCUF0qnuNfcNd1vrO-0">
          <mxGeometry relative="1" as="geometry" />
        </mxCell>
        <mxCell id="5T_4vJ3e5URUgC4gEQ-A-6" value="拍照識別模組&lt;br&gt;(OCR 文字識別)" style="rounded=1;whiteSpace=wrap;html=1;strokeColor=default;align=center;verticalAlign=middle;fontFamily=Times New Roman;fontSize=12;fontColor=default;fillColor=default;fontStyle=1;" parent="WIyWlLk6GJQsqaUBKTNV-1" vertex="1">
          <mxGeometry x="240" y="420" width="110" height="40" as="geometry" />
        </mxCell>
        <mxCell id="CbZdCUF0qnuNfcNd1vrO-7" style="edgeStyle=orthogonalEdgeStyle;rounded=0;orthogonalLoop=1;jettySize=auto;html=1;exitX=0.5;exitY=1;exitDx=0;exitDy=0;entryX=0.5;entryY=0;entryDx=0;entryDy=0;" edge="1" parent="WIyWlLk6GJQsqaUBKTNV-1" source="CbZdCUF0qnuNfcNd1vrO-0" target="CbZdCUF0qnuNfcNd1vrO-6">
          <mxGeometry relative="1" as="geometry" />
        </mxCell>
        <mxCell id="CbZdCUF0qnuNfcNd1vrO-17" style="edgeStyle=orthogonalEdgeStyle;rounded=0;orthogonalLoop=1;jettySize=auto;html=1;exitX=1;exitY=0.5;exitDx=0;exitDy=0;entryX=1.019;entryY=0.414;entryDx=0;entryDy=0;entryPerimeter=0;" edge="1" parent="WIyWlLk6GJQsqaUBKTNV-1" source="CbZdCUF0qnuNfcNd1vrO-0" target="CbZdCUF0qnuNfcNd1vrO-12">
          <mxGeometry relative="1" as="geometry">
            <Array as="points">
              <mxPoint x="580" y="525" />
              <mxPoint x="580" y="838" />
            </Array>
          </mxGeometry>
        </mxCell>
        <mxCell id="CbZdCUF0qnuNfcNd1vrO-0" value="問題分類與分解 Agent 1" style="rounded=1;whiteSpace=wrap;html=1;strokeColor=default;align=center;verticalAlign=middle;fontFamily=Times New Roman;fontSize=12;fontColor=default;fillColor=default;fontStyle=1;" vertex="1" parent="WIyWlLk6GJQsqaUBKTNV-1">
          <mxGeometry x="389" y="500" width="111" height="50" as="geometry" />
        </mxCell>
        <mxCell id="CbZdCUF0qnuNfcNd1vrO-2" value="輸入文本" style="edgeLabel;html=1;align=center;verticalAlign=middle;resizable=0;points=[];rounded=1;strokeColor=default;fontFamily=Times New Roman;fontSize=12;fontColor=default;fillColor=default;fontStyle=1;" vertex="1" connectable="0" parent="WIyWlLk6GJQsqaUBKTNV-1">
          <mxGeometry x="444" y="420" as="geometry" />
        </mxCell>
        <mxCell id="CbZdCUF0qnuNfcNd1vrO-5" value="提供OCR後文本" style="edgeLabel;html=1;align=center;verticalAlign=middle;resizable=0;points=[];rounded=1;strokeColor=default;fontFamily=Times New Roman;fontSize=12;fontColor=default;fillColor=default;fontStyle=1;" vertex="1" connectable="0" parent="WIyWlLk6GJQsqaUBKTNV-1">
          <mxGeometry x="295" y="500" as="geometry" />
        </mxCell>
        <mxCell id="CbZdCUF0qnuNfcNd1vrO-10" style="edgeStyle=orthogonalEdgeStyle;rounded=0;orthogonalLoop=1;jettySize=auto;html=1;entryX=1;entryY=0.5;entryDx=0;entryDy=0;entryPerimeter=0;" edge="1" parent="WIyWlLk6GJQsqaUBKTNV-1" source="CbZdCUF0qnuNfcNd1vrO-6" target="CbZdCUF0qnuNfcNd1vrO-9">
          <mxGeometry relative="1" as="geometry">
            <mxPoint x="205.5" y="715" as="targetPoint" />
          </mxGeometry>
        </mxCell>
        <mxCell id="CbZdCUF0qnuNfcNd1vrO-13" style="edgeStyle=orthogonalEdgeStyle;rounded=0;orthogonalLoop=1;jettySize=auto;html=1;exitX=0.5;exitY=1;exitDx=0;exitDy=0;entryX=0.5;entryY=0;entryDx=0;entryDy=0;" edge="1" parent="WIyWlLk6GJQsqaUBKTNV-1" source="CbZdCUF0qnuNfcNd1vrO-6" target="CbZdCUF0qnuNfcNd1vrO-12">
          <mxGeometry relative="1" as="geometry" />
        </mxCell>
        <mxCell id="CbZdCUF0qnuNfcNd1vrO-6" value="知識檢索 Agent 2&lt;br&gt;(方法：LightRAG)" style="rounded=1;whiteSpace=wrap;html=1;strokeColor=default;align=center;verticalAlign=middle;fontFamily=Times New Roman;fontSize=12;fontColor=default;fillColor=default;fontStyle=1;" vertex="1" parent="WIyWlLk6GJQsqaUBKTNV-1">
          <mxGeometry x="383.5" y="650" width="121" height="55" as="geometry" />
        </mxCell>
        <mxCell id="CbZdCUF0qnuNfcNd1vrO-8" value="與國文詢問問題相關：&lt;br&gt;分解為子問題" style="edgeLabel;html=1;align=center;verticalAlign=middle;resizable=0;points=[];rounded=1;strokeColor=default;fontFamily=Times New Roman;fontSize=12;fontColor=default;fillColor=default;fontStyle=1;" vertex="1" connectable="0" parent="WIyWlLk6GJQsqaUBKTNV-1">
          <mxGeometry x="439.5" y="590" as="geometry" />
        </mxCell>
        <mxCell id="CbZdCUF0qnuNfcNd1vrO-9" value="&lt;b&gt;知識圖譜知識庫&lt;br&gt;(中學生國文教科書、參考書、大學中文系教科書)&lt;/b&gt;" style="shape=cylinder3;whiteSpace=wrap;html=1;boundedLbl=1;backgroundOutline=1;size=15;" vertex="1" parent="WIyWlLk6GJQsqaUBKTNV-1">
          <mxGeometry x="80" y="617.5" width="160" height="120" as="geometry" />
        </mxCell>
        <mxCell id="CbZdCUF0qnuNfcNd1vrO-11" value="依照每個子問題&lt;br&gt;檢索相對應&lt;br&gt;知識點內容" style="edgeLabel;html=1;align=center;verticalAlign=middle;resizable=0;points=[];rounded=1;strokeColor=default;fontFamily=Times New Roman;fontSize=12;fontColor=default;fillColor=default;fontStyle=1;" vertex="1" connectable="0" parent="WIyWlLk6GJQsqaUBKTNV-1">
          <mxGeometry x="320" y="677.5" as="geometry" />
        </mxCell>
        <mxCell id="CbZdCUF0qnuNfcNd1vrO-15" style="edgeStyle=orthogonalEdgeStyle;rounded=0;orthogonalLoop=1;jettySize=auto;html=1;entryX=1;entryY=0.5;entryDx=0;entryDy=0;exitX=1;exitY=0.75;exitDx=0;exitDy=0;" edge="1" parent="WIyWlLk6GJQsqaUBKTNV-1" source="CbZdCUF0qnuNfcNd1vrO-12" target="5T_4vJ3e5URUgC4gEQ-A-4">
          <mxGeometry relative="1" as="geometry">
            <mxPoint x="554.03" y="849.37" as="sourcePoint" />
            <mxPoint x="540.03" y="295.63" as="targetPoint" />
            <Array as="points">
              <mxPoint x="518" y="860" />
              <mxPoint x="910" y="860" />
              <mxPoint x="910" y="300" />
            </Array>
          </mxGeometry>
        </mxCell>
        <mxCell id="CbZdCUF0qnuNfcNd1vrO-12" value="推理型 LLM&lt;br&gt;(DeepSeek R1)" style="rounded=1;whiteSpace=wrap;html=1;strokeColor=default;align=center;verticalAlign=middle;fontFamily=Times New Roman;fontSize=12;fontColor=default;fillColor=default;fontStyle=1;" vertex="1" parent="WIyWlLk6GJQsqaUBKTNV-1">
          <mxGeometry x="369.5" y="810" width="149" height="70" as="geometry" />
        </mxCell>
        <mxCell id="CbZdCUF0qnuNfcNd1vrO-14" value="&lt;div style=&quot;&quot;&gt;&lt;font face=&quot;Times New Roman&quot;&gt;&lt;span style=&quot;text-wrap: nowrap; background-color: rgb(255, 255, 255);&quot;&gt;&lt;b&gt;子問題檢索完成，&lt;br&gt;&lt;div style=&quot;&quot;&gt;&lt;b&gt;提供檢索文本給推理型LLM&lt;/b&gt;&lt;/div&gt;&lt;/b&gt;&lt;/span&gt;&lt;/font&gt;&lt;/div&gt;" style="text;whiteSpace=wrap;html=1;align=center;" vertex="1" parent="WIyWlLk6GJQsqaUBKTNV-1">
          <mxGeometry x="390" y="730" width="110" height="40" as="geometry" />
        </mxCell>
        <mxCell id="CbZdCUF0qnuNfcNd1vrO-16" value="進行邏輯推理和&lt;br&gt;優化生成最終答覆，&lt;br&gt;並附加來源標註" style="edgeLabel;html=1;align=center;verticalAlign=middle;resizable=0;points=[];rounded=1;strokeColor=default;fontFamily=Times New Roman;fontSize=12;fontColor=default;fillColor=default;fontStyle=1;" vertex="1" connectable="0" parent="WIyWlLk6GJQsqaUBKTNV-1">
          <mxGeometry x="780" y="300" as="geometry" />
        </mxCell>
        <mxCell id="CbZdCUF0qnuNfcNd1vrO-18" value="與國文詢問問題無關：&lt;br&gt;直接給輸出模型，告訴用戶&lt;br&gt;問題超過回答範圍" style="edgeLabel;html=1;align=center;verticalAlign=middle;resizable=0;points=[];rounded=1;strokeColor=default;fontFamily=Times New Roman;fontSize=12;fontColor=default;fillColor=default;fontStyle=1;" vertex="1" connectable="0" parent="WIyWlLk6GJQsqaUBKTNV-1">
          <mxGeometry x="580" y="590" as="geometry" />
        </mxCell>
        <mxCell id="CbZdCUF0qnuNfcNd1vrO-19" value="反饋收集與&lt;br&gt;學習記錄模組" style="rounded=1;whiteSpace=wrap;html=1;strokeColor=default;align=center;verticalAlign=middle;fontFamily=Times New Roman;fontSize=12;fontColor=default;fillColor=default;fontStyle=1;" vertex="1" parent="WIyWlLk6GJQsqaUBKTNV-1">
          <mxGeometry x="720" y="420" width="111" height="50" as="geometry" />
        </mxCell>
        <mxCell id="CbZdCUF0qnuNfcNd1vrO-22" value="用戶提供使用反饋、&lt;br&gt;評價答覆質量&lt;br&gt;與蒐集用戶詢問之歷史資料" style="edgeLabel;html=1;align=center;verticalAlign=middle;resizable=0;points=[];rounded=1;strokeColor=default;fontFamily=Times New Roman;fontSize=12;fontColor=default;fillColor=default;fontStyle=1;" vertex="1" connectable="0" parent="WIyWlLk6GJQsqaUBKTNV-1">
          <mxGeometry x="630" y="370" as="geometry" />
        </mxCell>
        <mxCell id="CbZdCUF0qnuNfcNd1vrO-23" value="&lt;b&gt;用戶資料庫&lt;br&gt;(用戶基本資訊、&lt;br&gt;反饋紀錄、詢問歷史)&lt;/b&gt;" style="shape=cylinder3;whiteSpace=wrap;html=1;boundedLbl=1;backgroundOutline=1;size=15;" vertex="1" parent="WIyWlLk6GJQsqaUBKTNV-1">
          <mxGeometry x="708.25" y="510" width="134.5" height="125" as="geometry" />
        </mxCell>
        <mxCell id="CbZdCUF0qnuNfcNd1vrO-24" style="edgeStyle=orthogonalEdgeStyle;rounded=0;orthogonalLoop=1;jettySize=auto;html=1;exitX=0.5;exitY=1;exitDx=0;exitDy=0;entryX=0.5;entryY=0;entryDx=0;entryDy=0;entryPerimeter=0;" edge="1" parent="WIyWlLk6GJQsqaUBKTNV-1" source="CbZdCUF0qnuNfcNd1vrO-19" target="CbZdCUF0qnuNfcNd1vrO-23">
          <mxGeometry relative="1" as="geometry" />
        </mxCell>
        <mxCell id="CbZdCUF0qnuNfcNd1vrO-25" style="edgeStyle=orthogonalEdgeStyle;rounded=0;orthogonalLoop=1;jettySize=auto;html=1;exitX=1;exitY=0.5;exitDx=0;exitDy=0;entryX=0.5;entryY=1;entryDx=0;entryDy=0;entryPerimeter=0;" edge="1" parent="WIyWlLk6GJQsqaUBKTNV-1" source="CbZdCUF0qnuNfcNd1vrO-6" target="CbZdCUF0qnuNfcNd1vrO-23">
          <mxGeometry relative="1" as="geometry" />
        </mxCell>
        <mxCell id="CbZdCUF0qnuNfcNd1vrO-26" value="檢索參考用戶詢問歷史，&lt;br&gt;以優化知識庫檢索策略" style="edgeLabel;html=1;align=center;verticalAlign=middle;resizable=0;points=[];rounded=1;strokeColor=default;fontFamily=Times New Roman;fontSize=12;fontColor=default;fillColor=default;fontStyle=1;" vertex="1" connectable="0" parent="WIyWlLk6GJQsqaUBKTNV-1">
          <mxGeometry x="680" y="677.5" as="geometry" />
        </mxCell>
      </root>
    </mxGraphModel>
  </diagram>
</mxfile>
